<?xml version="1.0" encoding="UTF-8" standalone="no"?>
<!DOCTYPE svg PUBLIC "-//W3C//DTD SVG 1.1//EN"
 "http://www.w3.org/Graphics/SVG/1.1/DTD/svg11.dtd">
<!-- Generated by graphviz version 2.43.0 (0)
 -->
<!-- Title: %3 Pages: 1 -->
<svg width="2436pt" height="476pt"
 viewBox="0.00 0.00 2435.57 476.00" xmlns="http://www.w3.org/2000/svg" xmlns:xlink="http://www.w3.org/1999/xlink">
<g id="graph0" class="graph" transform="scale(1 1) rotate(0) translate(4 472)">
<title>%3</title>
<polygon fill="white" stroke="transparent" points="-4,4 -4,-472 2431.57,-472 2431.57,4 -4,4"/>
<!-- [root] aws_eip.nat_eip (expand) -->
<g id="node1" class="node">
<title>[root] aws_eip.nat_eip (expand)</title>
<polygon fill="none" stroke="black" points="2199.69,-108 2070.69,-108 2070.69,-72 2199.69,-72 2199.69,-108"/>
<text text-anchor="middle" x="2135.19" y="-86.3" font-family="Times,serif" font-size="14.00">aws_eip.nat_eip</text>
</g>
<!-- [root] provider[&quot;registry.terraform.io/hashicorp/aws&quot;] -->
<g id="node23" class="node">
<title>[root] provider[&quot;registry.terraform.io/hashicorp/aws&quot;]</title>
<polygon fill="none" stroke="black" points="1389.19,-36 1063.93,-18 1389.19,0 1714.45,-18 1389.19,-36"/>
<text text-anchor="middle" x="1389.19" y="-14.3" font-family="Times,serif" font-size="14.00">provider[&quot;registry.terraform.io/hashicorp/aws&quot;]</text>
</g>
<!-- [root] aws_eip.nat_eip (expand)&#45;&gt;[root] provider[&quot;registry.terraform.io/hashicorp/aws&quot;] -->
<g id="edge1" class="edge">
<title>[root] aws_eip.nat_eip (expand)&#45;&gt;[root] provider[&quot;registry.terraform.io/hashicorp/aws&quot;]</title>
<path fill="none" stroke="black" d="M2070.62,-82.94C1946.8,-71.32 1674.07,-45.73 1513.72,-30.69"/>
<polygon fill="black" stroke="black" points="1513.61,-27.16 1503.32,-29.71 1512.95,-34.13 1513.61,-27.16"/>
</g>
<!-- [root] aws_instance.application1 (expand) -->
<g id="node2" class="node">
<title>[root] aws_instance.application1 (expand)</title>
<polygon fill="none" stroke="black" points="1159.69,-252 956.69,-252 956.69,-216 1159.69,-216 1159.69,-252"/>
<text text-anchor="middle" x="1058.19" y="-230.3" font-family="Times,serif" font-size="14.00">aws_instance.application1</text>
</g>
<!-- [root] aws_security_group.allow_ssh_3000 (expand) -->
<g id="node15" class="node">
<title>[root] aws_security_group.allow_ssh_3000 (expand)</title>
<polygon fill="none" stroke="black" points="1185.69,-180 912.69,-180 912.69,-144 1185.69,-144 1185.69,-180"/>
<text text-anchor="middle" x="1049.19" y="-158.3" font-family="Times,serif" font-size="14.00">aws_security_group.allow_ssh_3000</text>
</g>
<!-- [root] aws_instance.application1 (expand)&#45;&gt;[root] aws_security_group.allow_ssh_3000 (expand) -->
<g id="edge2" class="edge">
<title>[root] aws_instance.application1 (expand)&#45;&gt;[root] aws_security_group.allow_ssh_3000 (expand)</title>
<path fill="none" stroke="black" d="M1055.97,-215.7C1054.97,-207.98 1053.78,-198.71 1052.68,-190.11"/>
<polygon fill="black" stroke="black" points="1056.14,-189.58 1051.39,-180.1 1049.19,-190.47 1056.14,-189.58"/>
</g>
<!-- [root] aws_subnet.pri&#45;sub&#45;1 (expand) -->
<g id="node16" class="node">
<title>[root] aws_subnet.pri&#45;sub&#45;1 (expand)</title>
<polygon fill="none" stroke="black" points="894.19,-180 726.19,-180 726.19,-144 894.19,-144 894.19,-180"/>
<text text-anchor="middle" x="810.19" y="-158.3" font-family="Times,serif" font-size="14.00">aws_subnet.pri&#45;sub&#45;1</text>
</g>
<!-- [root] aws_instance.application1 (expand)&#45;&gt;[root] aws_subnet.pri&#45;sub&#45;1 (expand) -->
<g id="edge3" class="edge">
<title>[root] aws_instance.application1 (expand)&#45;&gt;[root] aws_subnet.pri&#45;sub&#45;1 (expand)</title>
<path fill="none" stroke="black" d="M997.84,-215.97C962.44,-205.97 917.53,-193.3 880.53,-182.85"/>
<polygon fill="black" stroke="black" points="881.39,-179.46 870.81,-180.11 879.48,-186.2 881.39,-179.46"/>
</g>
<!-- [root] data.aws_ami.ubuntu (expand) -->
<g id="node21" class="node">
<title>[root] data.aws_ami.ubuntu (expand)</title>
<polygon fill="none" stroke="black" points="1372.69,-180 1203.69,-180 1203.69,-144 1372.69,-144 1372.69,-180"/>
<text text-anchor="middle" x="1288.19" y="-158.3" font-family="Times,serif" font-size="14.00">data.aws_ami.ubuntu</text>
</g>
<!-- [root] aws_instance.application1 (expand)&#45;&gt;[root] data.aws_ami.ubuntu (expand) -->
<g id="edge4" class="edge">
<title>[root] aws_instance.application1 (expand)&#45;&gt;[root] data.aws_ami.ubuntu (expand)</title>
<path fill="none" stroke="black" d="M1114.16,-215.97C1146.72,-206.06 1187.93,-193.51 1222.08,-183.12"/>
<polygon fill="black" stroke="black" points="1223.42,-186.37 1231.97,-180.11 1221.38,-179.67 1223.42,-186.37"/>
</g>
<!-- [root] aws_instance.application2 (expand) -->
<g id="node3" class="node">
<title>[root] aws_instance.application2 (expand)</title>
<polygon fill="none" stroke="black" points="1389.69,-252 1186.69,-252 1186.69,-216 1389.69,-216 1389.69,-252"/>
<text text-anchor="middle" x="1288.19" y="-230.3" font-family="Times,serif" font-size="14.00">aws_instance.application2</text>
</g>
<!-- [root] aws_instance.application2 (expand)&#45;&gt;[root] aws_security_group.allow_ssh_3000 (expand) -->
<g id="edge5" class="edge">
<title>[root] aws_instance.application2 (expand)&#45;&gt;[root] aws_security_group.allow_ssh_3000 (expand)</title>
<path fill="none" stroke="black" d="M1230.03,-215.97C1196.06,-206.01 1153.01,-193.41 1117.43,-182.99"/>
<polygon fill="black" stroke="black" points="1118.19,-179.56 1107.61,-180.11 1116.22,-186.28 1118.19,-179.56"/>
</g>
<!-- [root] aws_subnet.pri&#45;sub&#45;2 (expand) -->
<g id="node17" class="node">
<title>[root] aws_subnet.pri&#45;sub&#45;2 (expand)</title>
<polygon fill="none" stroke="black" points="1558.19,-180 1390.19,-180 1390.19,-144 1558.19,-144 1558.19,-180"/>
<text text-anchor="middle" x="1474.19" y="-158.3" font-family="Times,serif" font-size="14.00">aws_subnet.pri&#45;sub&#45;2</text>
</g>
<!-- [root] aws_instance.application2 (expand)&#45;&gt;[root] aws_subnet.pri&#45;sub&#45;2 (expand) -->
<g id="edge6" class="edge">
<title>[root] aws_instance.application2 (expand)&#45;&gt;[root] aws_subnet.pri&#45;sub&#45;2 (expand)</title>
<path fill="none" stroke="black" d="M1333.69,-215.88C1359.57,-206.14 1392.16,-193.87 1419.43,-183.61"/>
<polygon fill="black" stroke="black" points="1420.71,-186.87 1428.84,-180.07 1418.25,-180.31 1420.71,-186.87"/>
</g>
<!-- [root] aws_instance.application2 (expand)&#45;&gt;[root] data.aws_ami.ubuntu (expand) -->
<g id="edge7" class="edge">
<title>[root] aws_instance.application2 (expand)&#45;&gt;[root] data.aws_ami.ubuntu (expand)</title>
<path fill="none" stroke="black" d="M1288.19,-215.7C1288.19,-207.98 1288.19,-198.71 1288.19,-190.11"/>
<polygon fill="black" stroke="black" points="1291.69,-190.1 1288.19,-180.1 1284.69,-190.1 1291.69,-190.1"/>
</g>
<!-- [root] aws_instance.bastion1 (expand) -->
<g id="node4" class="node">
<title>[root] aws_instance.bastion1 (expand)</title>
<polygon fill="none" stroke="black" points="1779.69,-252 1602.69,-252 1602.69,-216 1779.69,-216 1779.69,-252"/>
<text text-anchor="middle" x="1691.19" y="-230.3" font-family="Times,serif" font-size="14.00">aws_instance.bastion1</text>
</g>
<!-- [root] aws_security_group.allow_ssh (expand) -->
<g id="node14" class="node">
<title>[root] aws_security_group.allow_ssh (expand)</title>
<polygon fill="none" stroke="black" points="1806.19,-180 1576.19,-180 1576.19,-144 1806.19,-144 1806.19,-180"/>
<text text-anchor="middle" x="1691.19" y="-158.3" font-family="Times,serif" font-size="14.00">aws_security_group.allow_ssh</text>
</g>
<!-- [root] aws_instance.bastion1 (expand)&#45;&gt;[root] aws_security_group.allow_ssh (expand) -->
<g id="edge8" class="edge">
<title>[root] aws_instance.bastion1 (expand)&#45;&gt;[root] aws_security_group.allow_ssh (expand)</title>
<path fill="none" stroke="black" d="M1691.19,-215.7C1691.19,-207.98 1691.19,-198.71 1691.19,-190.11"/>
<polygon fill="black" stroke="black" points="1694.69,-190.1 1691.19,-180.1 1687.69,-190.1 1694.69,-190.1"/>
</g>
<!-- [root] aws_subnet.pub&#45;sub&#45;1 (expand) -->
<g id="node18" class="node">
<title>[root] aws_subnet.pub&#45;sub&#45;1 (expand)</title>
<polygon fill="none" stroke="black" points="2192.69,-180 2017.69,-180 2017.69,-144 2192.69,-144 2192.69,-180"/>
<text text-anchor="middle" x="2105.19" y="-158.3" font-family="Times,serif" font-size="14.00">aws_subnet.pub&#45;sub&#45;1</text>
</g>
<!-- [root] aws_instance.bastion1 (expand)&#45;&gt;[root] aws_subnet.pub&#45;sub&#45;1 (expand) -->
<g id="edge9" class="edge">
<title>[root] aws_instance.bastion1 (expand)&#45;&gt;[root] aws_subnet.pub&#45;sub&#45;1 (expand)</title>
<path fill="none" stroke="black" d="M1779.99,-218.45C1841.29,-208.34 1924.99,-194.43 2007.51,-180.28"/>
<polygon fill="black" stroke="black" points="2008.3,-183.7 2017.56,-178.56 2007.11,-176.8 2008.3,-183.7"/>
</g>
<!-- [root] aws_instance.bastion1 (expand)&#45;&gt;[root] data.aws_ami.ubuntu (expand) -->
<g id="edge10" class="edge">
<title>[root] aws_instance.bastion1 (expand)&#45;&gt;[root] data.aws_ami.ubuntu (expand)</title>
<path fill="none" stroke="black" d="M1602.52,-217.6C1599.37,-217.06 1596.25,-216.53 1593.19,-216 1502.12,-200.37 1476.96,-196.82 1382.78,-180.27"/>
<polygon fill="black" stroke="black" points="1383.28,-176.81 1372.83,-178.52 1382.07,-183.7 1383.28,-176.81"/>
</g>
<!-- [root] aws_instance.bastion2 (expand) -->
<g id="node5" class="node">
<title>[root] aws_instance.bastion2 (expand)</title>
<polygon fill="none" stroke="black" points="1584.69,-252 1407.69,-252 1407.69,-216 1584.69,-216 1584.69,-252"/>
<text text-anchor="middle" x="1496.19" y="-230.3" font-family="Times,serif" font-size="14.00">aws_instance.bastion2</text>
</g>
<!-- [root] aws_instance.bastion2 (expand)&#45;&gt;[root] aws_security_group.allow_ssh (expand) -->
<g id="edge11" class="edge">
<title>[root] aws_instance.bastion2 (expand)&#45;&gt;[root] aws_security_group.allow_ssh (expand)</title>
<path fill="none" stroke="black" d="M1543.89,-215.88C1571.14,-206.09 1605.49,-193.77 1634.16,-183.47"/>
<polygon fill="black" stroke="black" points="1635.41,-186.74 1643.64,-180.07 1633.05,-180.15 1635.41,-186.74"/>
</g>
<!-- [root] aws_subnet.pub&#45;sub&#45;2 (expand) -->
<g id="node19" class="node">
<title>[root] aws_subnet.pub&#45;sub&#45;2 (expand)</title>
<polygon fill="none" stroke="black" points="1999.69,-180 1824.69,-180 1824.69,-144 1999.69,-144 1999.69,-180"/>
<text text-anchor="middle" x="1912.19" y="-158.3" font-family="Times,serif" font-size="14.00">aws_subnet.pub&#45;sub&#45;2</text>
</g>
<!-- [root] aws_instance.bastion2 (expand)&#45;&gt;[root] aws_subnet.pub&#45;sub&#45;2 (expand) -->
<g id="edge12" class="edge">
<title>[root] aws_instance.bastion2 (expand)&#45;&gt;[root] aws_subnet.pub&#45;sub&#45;2 (expand)</title>
<path fill="none" stroke="black" d="M1584.73,-217.43C1587.58,-216.95 1590.41,-216.47 1593.19,-216 1688.67,-199.89 1715,-196.81 1814.8,-180.05"/>
<polygon fill="black" stroke="black" points="1815.41,-183.5 1824.69,-178.39 1814.25,-176.6 1815.41,-183.5"/>
</g>
<!-- [root] aws_instance.bastion2 (expand)&#45;&gt;[root] data.aws_ami.ubuntu (expand) -->
<g id="edge13" class="edge">
<title>[root] aws_instance.bastion2 (expand)&#45;&gt;[root] data.aws_ami.ubuntu (expand)</title>
<path fill="none" stroke="black" d="M1445.57,-215.97C1416.38,-206.14 1379.5,-193.73 1348.77,-183.39"/>
<polygon fill="black" stroke="black" points="1349.63,-179.98 1339.03,-180.11 1347.39,-186.62 1349.63,-179.98"/>
</g>
<!-- [root] aws_internet_gateway.gw (expand) -->
<g id="node6" class="node">
<title>[root] aws_internet_gateway.gw (expand)</title>
<polygon fill="none" stroke="black" points="2409.69,-180 2210.69,-180 2210.69,-144 2409.69,-144 2409.69,-180"/>
<text text-anchor="middle" x="2310.19" y="-158.3" font-family="Times,serif" font-size="14.00">aws_internet_gateway.gw</text>
</g>
<!-- [root] aws_vpc.main (expand) -->
<g id="node20" class="node">
<title>[root] aws_vpc.main (expand)</title>
<polygon fill="none" stroke="black" points="1749.19,-108 1633.19,-108 1633.19,-72 1749.19,-72 1749.19,-108"/>
<text text-anchor="middle" x="1691.19" y="-86.3" font-family="Times,serif" font-size="14.00">aws_vpc.main</text>
</g>
<!-- [root] aws_internet_gateway.gw (expand)&#45;&gt;[root] aws_vpc.main (expand) -->
<g id="edge14" class="edge">
<title>[root] aws_internet_gateway.gw (expand)&#45;&gt;[root] aws_vpc.main (expand)</title>
<path fill="none" stroke="black" d="M2210.48,-145.11C2207.69,-144.73 2204.92,-144.36 2202.19,-144 2044.17,-123.38 1857.8,-105.73 1759.63,-96.94"/>
<polygon fill="black" stroke="black" points="1759.82,-93.44 1749.55,-96.04 1759.2,-100.42 1759.82,-93.44"/>
</g>
<!-- [root] aws_key_pair.tf&#45;public&#45;key (expand) -->
<g id="node7" class="node">
<title>[root] aws_key_pair.tf&#45;public&#45;key (expand)</title>
<polygon fill="none" stroke="black" points="757.19,-324 555.19,-324 555.19,-288 757.19,-288 757.19,-324"/>
<text text-anchor="middle" x="656.19" y="-302.3" font-family="Times,serif" font-size="14.00">aws_key_pair.tf&#45;public&#45;key</text>
</g>
<!-- [root] aws_key_pair.tf&#45;public&#45;key (expand)&#45;&gt;[root] provider[&quot;registry.terraform.io/hashicorp/aws&quot;] -->
<g id="edge15" class="edge">
<title>[root] aws_key_pair.tf&#45;public&#45;key (expand)&#45;&gt;[root] provider[&quot;registry.terraform.io/hashicorp/aws&quot;]</title>
<path fill="none" stroke="black" d="M656.63,-287.95C658.3,-256.18 666.03,-187.23 701.19,-144 745.08,-90.02 773.46,-91.7 840.19,-72 909.68,-51.48 1088.87,-36.7 1223.78,-28.04"/>
<polygon fill="black" stroke="black" points="1224.06,-31.53 1233.82,-27.41 1223.62,-24.55 1224.06,-31.53"/>
</g>
<!-- [root] tls_private_key.key_genrator (expand) -->
<g id="node25" class="node">
<title>[root] tls_private_key.key_genrator (expand)</title>
<polygon fill="none" stroke="black" points="632.19,-252 412.19,-252 412.19,-216 632.19,-216 632.19,-252"/>
<text text-anchor="middle" x="522.19" y="-230.3" font-family="Times,serif" font-size="14.00">tls_private_key.key_genrator</text>
</g>
<!-- [root] aws_key_pair.tf&#45;public&#45;key (expand)&#45;&gt;[root] tls_private_key.key_genrator (expand) -->
<g id="edge16" class="edge">
<title>[root] aws_key_pair.tf&#45;public&#45;key (expand)&#45;&gt;[root] tls_private_key.key_genrator (expand)</title>
<path fill="none" stroke="black" d="M623.41,-287.88C605.57,-278.55 583.29,-266.92 564.19,-256.94"/>
<polygon fill="black" stroke="black" points="565.58,-253.72 555.1,-252.19 562.34,-259.92 565.58,-253.72"/>
</g>
<!-- [root] aws_nat_gateway.nat (expand) -->
<g id="node8" class="node">
<title>[root] aws_nat_gateway.nat (expand)</title>
<polygon fill="none" stroke="black" points="2346.69,-252 2179.69,-252 2179.69,-216 2346.69,-216 2346.69,-252"/>
<text text-anchor="middle" x="2263.19" y="-230.3" font-family="Times,serif" font-size="14.00">aws_nat_gateway.nat</text>
</g>
<!-- [root] aws_nat_gateway.nat (expand)&#45;&gt;[root] aws_eip.nat_eip (expand) -->
<g id="edge17" class="edge">
<title>[root] aws_nat_gateway.nat (expand)&#45;&gt;[root] aws_eip.nat_eip (expand)</title>
<path fill="none" stroke="black" d="M2345.55,-215.96C2396.57,-201.63 2447.43,-178 2419.19,-144 2393.1,-112.59 2285.29,-99.69 2210.28,-94.47"/>
<polygon fill="black" stroke="black" points="2210.13,-90.95 2199.92,-93.78 2209.67,-97.93 2210.13,-90.95"/>
</g>
<!-- [root] aws_nat_gateway.nat (expand)&#45;&gt;[root] aws_internet_gateway.gw (expand) -->
<g id="edge18" class="edge">
<title>[root] aws_nat_gateway.nat (expand)&#45;&gt;[root] aws_internet_gateway.gw (expand)</title>
<path fill="none" stroke="black" d="M2274.81,-215.7C2280.33,-207.47 2287.04,-197.48 2293.12,-188.42"/>
<polygon fill="black" stroke="black" points="2296.04,-190.36 2298.71,-180.1 2290.23,-186.46 2296.04,-190.36"/>
</g>
<!-- [root] aws_nat_gateway.nat (expand)&#45;&gt;[root] aws_subnet.pub&#45;sub&#45;1 (expand) -->
<g id="edge19" class="edge">
<title>[root] aws_nat_gateway.nat (expand)&#45;&gt;[root] aws_subnet.pub&#45;sub&#45;1 (expand)</title>
<path fill="none" stroke="black" d="M2224.54,-215.88C2202.94,-206.31 2175.84,-194.3 2152.92,-184.15"/>
<polygon fill="black" stroke="black" points="2154.28,-180.92 2143.72,-180.07 2151.44,-187.32 2154.28,-180.92"/>
</g>
<!-- [root] aws_route_table.rt (expand) -->
<g id="node9" class="node">
<title>[root] aws_route_table.rt (expand)</title>
<polygon fill="none" stroke="black" points="2077.69,-252 1928.69,-252 1928.69,-216 2077.69,-216 2077.69,-252"/>
<text text-anchor="middle" x="2003.19" y="-230.3" font-family="Times,serif" font-size="14.00">aws_route_table.rt</text>
</g>
<!-- [root] aws_route_table.rt (expand)&#45;&gt;[root] aws_internet_gateway.gw (expand) -->
<g id="edge20" class="edge">
<title>[root] aws_route_table.rt (expand)&#45;&gt;[root] aws_internet_gateway.gw (expand)</title>
<path fill="none" stroke="black" d="M2077.9,-215.97C2122.46,-205.8 2179.18,-192.87 2225.41,-182.33"/>
<polygon fill="black" stroke="black" points="2226.44,-185.69 2235.41,-180.05 2224.89,-178.86 2226.44,-185.69"/>
</g>
<!-- [root] aws_route_table_association.a (expand) -->
<g id="node10" class="node">
<title>[root] aws_route_table_association.a (expand)</title>
<polygon fill="none" stroke="black" points="2159.69,-324 1928.69,-324 1928.69,-288 2159.69,-288 2159.69,-324"/>
<text text-anchor="middle" x="2044.19" y="-302.3" font-family="Times,serif" font-size="14.00">aws_route_table_association.a</text>
</g>
<!-- [root] aws_route_table_association.a (expand)&#45;&gt;[root] aws_route_table.rt (expand) -->
<g id="edge21" class="edge">
<title>[root] aws_route_table_association.a (expand)&#45;&gt;[root] aws_route_table.rt (expand)</title>
<path fill="none" stroke="black" d="M2034.06,-287.7C2029.34,-279.64 2023.63,-269.89 2018.41,-260.98"/>
<polygon fill="black" stroke="black" points="2021.28,-258.96 2013.21,-252.1 2015.24,-262.5 2021.28,-258.96"/>
</g>
<!-- [root] aws_route_table_association.a (expand)&#45;&gt;[root] aws_subnet.pub&#45;sub&#45;1 (expand) -->
<g id="edge22" class="edge">
<title>[root] aws_route_table_association.a (expand)&#45;&gt;[root] aws_subnet.pub&#45;sub&#45;1 (expand)</title>
<path fill="none" stroke="black" d="M2061.7,-287.86C2070.64,-278.14 2080.92,-265.29 2087.19,-252 2096.41,-232.45 2100.91,-208.32 2103.11,-190.11"/>
<polygon fill="black" stroke="black" points="2106.59,-190.47 2104.16,-180.16 2099.63,-189.74 2106.59,-190.47"/>
</g>
<!-- [root] aws_route_table_association.b (expand) -->
<g id="node11" class="node">
<title>[root] aws_route_table_association.b (expand)</title>
<polygon fill="none" stroke="black" points="1910.19,-324 1678.19,-324 1678.19,-288 1910.19,-288 1910.19,-324"/>
<text text-anchor="middle" x="1794.19" y="-302.3" font-family="Times,serif" font-size="14.00">aws_route_table_association.b</text>
</g>
<!-- [root] aws_route_table_association.b (expand)&#45;&gt;[root] aws_route_table.rt (expand) -->
<g id="edge23" class="edge">
<title>[root] aws_route_table_association.b (expand)&#45;&gt;[root] aws_route_table.rt (expand)</title>
<path fill="none" stroke="black" d="M1845.05,-287.97C1874.38,-278.14 1911.44,-265.73 1942.31,-255.39"/>
<polygon fill="black" stroke="black" points="1943.73,-258.61 1952.1,-252.11 1941.51,-251.97 1943.73,-258.61"/>
</g>
<!-- [root] aws_route_table_association.b (expand)&#45;&gt;[root] aws_subnet.pub&#45;sub&#45;2 (expand) -->
<g id="edge24" class="edge">
<title>[root] aws_route_table_association.b (expand)&#45;&gt;[root] aws_subnet.pub&#45;sub&#45;2 (expand)</title>
<path fill="none" stroke="black" d="M1808.42,-287.87C1829.07,-263.03 1867.44,-216.85 1891.3,-188.14"/>
<polygon fill="black" stroke="black" points="1894.21,-190.12 1897.91,-180.19 1888.82,-185.64 1894.21,-190.12"/>
</g>
<!-- [root] aws_secretsmanager_secret.secret (expand) -->
<g id="node12" class="node">
<title>[root] aws_secretsmanager_secret.secret (expand)</title>
<polygon fill="none" stroke="black" points="1115.19,-108 849.19,-108 849.19,-72 1115.19,-72 1115.19,-108"/>
<text text-anchor="middle" x="982.19" y="-86.3" font-family="Times,serif" font-size="14.00">aws_secretsmanager_secret.secret</text>
</g>
<!-- [root] aws_secretsmanager_secret.secret (expand)&#45;&gt;[root] provider[&quot;registry.terraform.io/hashicorp/aws&quot;] -->
<g id="edge25" class="edge">
<title>[root] aws_secretsmanager_secret.secret (expand)&#45;&gt;[root] provider[&quot;registry.terraform.io/hashicorp/aws&quot;]</title>
<path fill="none" stroke="black" d="M1081.23,-71.97C1149.47,-60.23 1239.2,-44.8 1304.18,-33.62"/>
<polygon fill="black" stroke="black" points="1305.13,-37.01 1314.39,-31.86 1303.95,-30.11 1305.13,-37.01"/>
</g>
<!-- [root] aws_secretsmanager_secret_version.smv (expand) -->
<g id="node13" class="node">
<title>[root] aws_secretsmanager_secret_version.smv (expand)</title>
<polygon fill="none" stroke="black" points="1085.19,-324 775.19,-324 775.19,-288 1085.19,-288 1085.19,-324"/>
<text text-anchor="middle" x="930.19" y="-302.3" font-family="Times,serif" font-size="14.00">aws_secretsmanager_secret_version.smv</text>
</g>
<!-- [root] aws_secretsmanager_secret_version.smv (expand)&#45;&gt;[root] aws_secretsmanager_secret.secret (expand) -->
<g id="edge26" class="edge">
<title>[root] aws_secretsmanager_secret_version.smv (expand)&#45;&gt;[root] aws_secretsmanager_secret.secret (expand)</title>
<path fill="none" stroke="black" d="M871.03,-287.92C791.09,-261.91 664.29,-208.53 717.19,-144 733.68,-123.89 785.57,-111.26 839.12,-103.4"/>
<polygon fill="black" stroke="black" points="839.72,-106.85 849.13,-101.99 838.74,-99.92 839.72,-106.85"/>
</g>
<!-- [root] aws_secretsmanager_secret_version.smv (expand)&#45;&gt;[root] tls_private_key.key_genrator (expand) -->
<g id="edge27" class="edge">
<title>[root] aws_secretsmanager_secret_version.smv (expand)&#45;&gt;[root] tls_private_key.key_genrator (expand)</title>
<path fill="none" stroke="black" d="M830.9,-287.97C770.69,-277.63 693.77,-264.44 631.78,-253.8"/>
<polygon fill="black" stroke="black" points="632.02,-250.29 621.57,-252.05 630.83,-257.19 632.02,-250.29"/>
</g>
<!-- [root] aws_security_group.allow_ssh (expand)&#45;&gt;[root] aws_vpc.main (expand) -->
<g id="edge28" class="edge">
<title>[root] aws_security_group.allow_ssh (expand)&#45;&gt;[root] aws_vpc.main (expand)</title>
<path fill="none" stroke="black" d="M1691.19,-143.7C1691.19,-135.98 1691.19,-126.71 1691.19,-118.11"/>
<polygon fill="black" stroke="black" points="1694.69,-118.1 1691.19,-108.1 1687.69,-118.1 1694.69,-118.1"/>
</g>
<!-- [root] aws_security_group.allow_ssh_3000 (expand)&#45;&gt;[root] aws_vpc.main (expand) -->
<g id="edge29" class="edge">
<title>[root] aws_security_group.allow_ssh_3000 (expand)&#45;&gt;[root] aws_vpc.main (expand)</title>
<path fill="none" stroke="black" d="M1185.79,-144.86C1188.61,-144.57 1191.42,-144.28 1194.19,-144 1384.57,-124.86 1434.43,-139.3 1623.19,-108 1623.29,-107.98 1623.39,-107.97 1623.49,-107.95"/>
<polygon fill="black" stroke="black" points="1623.88,-111.44 1633.08,-106.18 1622.61,-104.55 1623.88,-111.44"/>
</g>
<!-- [root] aws_subnet.pri&#45;sub&#45;1 (expand)&#45;&gt;[root] aws_vpc.main (expand) -->
<g id="edge30" class="edge">
<title>[root] aws_subnet.pri&#45;sub&#45;1 (expand)&#45;&gt;[root] aws_vpc.main (expand)</title>
<path fill="none" stroke="black" d="M894.27,-145.12C897.27,-144.72 900.26,-144.34 903.19,-144 1221.46,-107.11 1306.27,-155.08 1623.19,-108 1623.29,-107.98 1623.39,-107.97 1623.49,-107.95"/>
<polygon fill="black" stroke="black" points="1623.83,-111.45 1633.1,-106.31 1622.65,-104.55 1623.83,-111.45"/>
</g>
<!-- [root] data.aws_availability_zones.available (expand) -->
<g id="node22" class="node">
<title>[root] data.aws_availability_zones.available (expand)</title>
<polygon fill="none" stroke="black" points="1614.69,-108 1333.69,-108 1333.69,-72 1614.69,-72 1614.69,-108"/>
<text text-anchor="middle" x="1474.19" y="-86.3" font-family="Times,serif" font-size="14.00">data.aws_availability_zones.available</text>
</g>
<!-- [root] aws_subnet.pri&#45;sub&#45;1 (expand)&#45;&gt;[root] data.aws_availability_zones.available (expand) -->
<g id="edge31" class="edge">
<title>[root] aws_subnet.pri&#45;sub&#45;1 (expand)&#45;&gt;[root] data.aws_availability_zones.available (expand)</title>
<path fill="none" stroke="black" d="M894.29,-145.28C897.29,-144.83 900.26,-144.4 903.19,-144 1045.12,-124.48 1207.92,-110.16 1323.27,-101.36"/>
<polygon fill="black" stroke="black" points="1323.88,-104.82 1333.59,-100.58 1323.35,-97.84 1323.88,-104.82"/>
</g>
<!-- [root] aws_subnet.pri&#45;sub&#45;2 (expand)&#45;&gt;[root] aws_vpc.main (expand) -->
<g id="edge32" class="edge">
<title>[root] aws_subnet.pri&#45;sub&#45;2 (expand)&#45;&gt;[root] aws_vpc.main (expand)</title>
<path fill="none" stroke="black" d="M1527,-143.97C1557.58,-134.1 1596.26,-121.62 1628.4,-111.25"/>
<polygon fill="black" stroke="black" points="1629.7,-114.51 1638.15,-108.11 1627.55,-107.85 1629.7,-114.51"/>
</g>
<!-- [root] aws_subnet.pri&#45;sub&#45;2 (expand)&#45;&gt;[root] data.aws_availability_zones.available (expand) -->
<g id="edge33" class="edge">
<title>[root] aws_subnet.pri&#45;sub&#45;2 (expand)&#45;&gt;[root] data.aws_availability_zones.available (expand)</title>
<path fill="none" stroke="black" d="M1474.19,-143.7C1474.19,-135.98 1474.19,-126.71 1474.19,-118.11"/>
<polygon fill="black" stroke="black" points="1477.69,-118.1 1474.19,-108.1 1470.69,-118.1 1477.69,-118.1"/>
</g>
<!-- [root] aws_subnet.pub&#45;sub&#45;1 (expand)&#45;&gt;[root] aws_vpc.main (expand) -->
<g id="edge34" class="edge">
<title>[root] aws_subnet.pub&#45;sub&#45;1 (expand)&#45;&gt;[root] aws_vpc.main (expand)</title>
<path fill="none" stroke="black" d="M2017.56,-145.44C2014.74,-144.96 2011.94,-144.47 2009.19,-144 1923.06,-129.2 1823.69,-112.73 1759.28,-102.14"/>
<polygon fill="black" stroke="black" points="1759.68,-98.66 1749.25,-100.5 1758.55,-105.57 1759.68,-98.66"/>
</g>
<!-- [root] aws_subnet.pub&#45;sub&#45;1 (expand)&#45;&gt;[root] data.aws_availability_zones.available (expand) -->
<g id="edge35" class="edge">
<title>[root] aws_subnet.pub&#45;sub&#45;1 (expand)&#45;&gt;[root] data.aws_availability_zones.available (expand)</title>
<path fill="none" stroke="black" d="M2017.6,-145.18C2014.77,-144.77 2011.96,-144.37 2009.19,-144 1842.12,-121.44 1796.85,-125.51 1624.87,-108.05"/>
<polygon fill="black" stroke="black" points="1625.01,-104.55 1614.71,-107.01 1624.3,-111.51 1625.01,-104.55"/>
</g>
<!-- [root] aws_subnet.pub&#45;sub&#45;2 (expand)&#45;&gt;[root] aws_vpc.main (expand) -->
<g id="edge36" class="edge">
<title>[root] aws_subnet.pub&#45;sub&#45;2 (expand)&#45;&gt;[root] aws_vpc.main (expand)</title>
<path fill="none" stroke="black" d="M1858.41,-143.97C1827.26,-134.1 1787.87,-121.62 1755.14,-111.25"/>
<polygon fill="black" stroke="black" points="1755.8,-107.79 1745.21,-108.11 1753.69,-114.47 1755.8,-107.79"/>
</g>
<!-- [root] aws_subnet.pub&#45;sub&#45;2 (expand)&#45;&gt;[root] data.aws_availability_zones.available (expand) -->
<g id="edge37" class="edge">
<title>[root] aws_subnet.pub&#45;sub&#45;2 (expand)&#45;&gt;[root] data.aws_availability_zones.available (expand)</title>
<path fill="none" stroke="black" d="M1824.43,-145.54C1821.32,-145.02 1818.23,-144.5 1815.19,-144 1743.09,-132.08 1662.28,-119.49 1597.44,-109.57"/>
<polygon fill="black" stroke="black" points="1597.58,-106.05 1587.17,-108 1596.52,-112.97 1597.58,-106.05"/>
</g>
<!-- [root] aws_vpc.main (expand)&#45;&gt;[root] provider[&quot;registry.terraform.io/hashicorp/aws&quot;] -->
<g id="edge38" class="edge">
<title>[root] aws_vpc.main (expand)&#45;&gt;[root] provider[&quot;registry.terraform.io/hashicorp/aws&quot;]</title>
<path fill="none" stroke="black" d="M1632.97,-74.36C1629.66,-73.55 1626.39,-72.76 1623.19,-72 1569.02,-59.1 1507.61,-45.21 1461.3,-34.9"/>
<polygon fill="black" stroke="black" points="1461.88,-31.44 1451.35,-32.69 1460.36,-38.27 1461.88,-31.44"/>
</g>
<!-- [root] data.aws_ami.ubuntu (expand)&#45;&gt;[root] provider[&quot;registry.terraform.io/hashicorp/aws&quot;] -->
<g id="edge39" class="edge">
<title>[root] data.aws_ami.ubuntu (expand)&#45;&gt;[root] provider[&quot;registry.terraform.io/hashicorp/aws&quot;]</title>
<path fill="none" stroke="black" d="M1292.32,-143.99C1297.5,-125.08 1307.77,-94.27 1324.19,-72 1332.95,-60.12 1344.97,-49.34 1356.29,-40.64"/>
<polygon fill="black" stroke="black" points="1358.38,-43.45 1364.35,-34.7 1354.23,-37.82 1358.38,-43.45"/>
</g>
<!-- [root] data.aws_availability_zones.available (expand)&#45;&gt;[root] provider[&quot;registry.terraform.io/hashicorp/aws&quot;] -->
<g id="edge40" class="edge">
<title>[root] data.aws_availability_zones.available (expand)&#45;&gt;[root] provider[&quot;registry.terraform.io/hashicorp/aws&quot;]</title>
<path fill="none" stroke="black" d="M1453.18,-71.7C1442.15,-62.62 1428.51,-51.38 1416.66,-41.62"/>
<polygon fill="black" stroke="black" points="1418.74,-38.8 1408.79,-35.14 1414.29,-44.2 1418.74,-38.8"/>
</g>
<!-- [root] provider[&quot;registry.terraform.io/hashicorp/tls&quot;] -->
<g id="node24" class="node">
<title>[root] provider[&quot;registry.terraform.io/hashicorp/tls&quot;]</title>
<polygon fill="none" stroke="black" points="316.19,-180 -0.19,-162 316.19,-144 632.57,-162 316.19,-180"/>
<text text-anchor="middle" x="316.19" y="-158.3" font-family="Times,serif" font-size="14.00">provider[&quot;registry.terraform.io/hashicorp/tls&quot;]</text>
</g>
<!-- [root] tls_private_key.key_genrator (expand)&#45;&gt;[root] provider[&quot;registry.terraform.io/hashicorp/tls&quot;] -->
<g id="edge53" class="edge">
<title>[root] tls_private_key.key_genrator (expand)&#45;&gt;[root] provider[&quot;registry.terraform.io/hashicorp/tls&quot;]</title>
<path fill="none" stroke="black" d="M472.06,-215.97C440.76,-205.33 400.52,-191.66 368.77,-180.87"/>
<polygon fill="black" stroke="black" points="369.81,-177.52 359.21,-177.62 367.55,-184.15 369.81,-177.52"/>
</g>
<!-- [root] provider[&quot;registry.terraform.io/hashicorp/aws&quot;] (close) -->
<g id="node26" class="node">
<title>[root] provider[&quot;registry.terraform.io/hashicorp/aws&quot;] (close)</title>
<ellipse fill="none" stroke="black" cx="1380.19" cy="-378" rx="291.65" ry="18"/>
<text text-anchor="middle" x="1380.19" y="-374.3" font-family="Times,serif" font-size="14.00">[root] provider[&quot;registry.terraform.io/hashicorp/aws&quot;] (close)</text>
</g>
<!-- [root] provider[&quot;registry.terraform.io/hashicorp/aws&quot;] (close)&#45;&gt;[root] aws_instance.application1 (expand) -->
<g id="edge41" class="edge">
<title>[root] provider[&quot;registry.terraform.io/hashicorp/aws&quot;] (close)&#45;&gt;[root] aws_instance.application1 (expand)</title>
<path fill="none" stroke="black" d="M1341.99,-360.15C1283.2,-334.23 1170.64,-284.59 1106.35,-256.24"/>
<polygon fill="black" stroke="black" points="1107.41,-252.88 1096.84,-252.05 1104.58,-259.28 1107.41,-252.88"/>
</g>
<!-- [root] provider[&quot;registry.terraform.io/hashicorp/aws&quot;] (close)&#45;&gt;[root] aws_instance.application2 (expand) -->
<g id="edge42" class="edge">
<title>[root] provider[&quot;registry.terraform.io/hashicorp/aws&quot;] (close)&#45;&gt;[root] aws_instance.application2 (expand)</title>
<path fill="none" stroke="black" d="M1369.09,-359.87C1353.14,-335.24 1323.59,-289.64 1304.96,-260.88"/>
<polygon fill="black" stroke="black" points="1307.7,-258.68 1299.33,-252.19 1301.83,-262.48 1307.7,-258.68"/>
</g>
<!-- [root] provider[&quot;registry.terraform.io/hashicorp/aws&quot;] (close)&#45;&gt;[root] aws_instance.bastion1 (expand) -->
<g id="edge43" class="edge">
<title>[root] provider[&quot;registry.terraform.io/hashicorp/aws&quot;] (close)&#45;&gt;[root] aws_instance.bastion1 (expand)</title>
<path fill="none" stroke="black" d="M1417.4,-360.01C1474.29,-334.03 1582.82,-284.48 1644.78,-256.19"/>
<polygon fill="black" stroke="black" points="1646.3,-259.34 1653.94,-252.01 1643.39,-252.98 1646.3,-259.34"/>
</g>
<!-- [root] provider[&quot;registry.terraform.io/hashicorp/aws&quot;] (close)&#45;&gt;[root] aws_instance.bastion2 (expand) -->
<g id="edge44" class="edge">
<title>[root] provider[&quot;registry.terraform.io/hashicorp/aws&quot;] (close)&#45;&gt;[root] aws_instance.bastion2 (expand)</title>
<path fill="none" stroke="black" d="M1394.18,-359.87C1414.48,-335.03 1452.2,-288.85 1475.65,-260.14"/>
<polygon fill="black" stroke="black" points="1478.53,-262.15 1482.15,-252.19 1473.11,-257.72 1478.53,-262.15"/>
</g>
<!-- [root] provider[&quot;registry.terraform.io/hashicorp/aws&quot;] (close)&#45;&gt;[root] aws_key_pair.tf&#45;public&#45;key (expand) -->
<g id="edge45" class="edge">
<title>[root] provider[&quot;registry.terraform.io/hashicorp/aws&quot;] (close)&#45;&gt;[root] aws_key_pair.tf&#45;public&#45;key (expand)</title>
<path fill="none" stroke="black" d="M1193.44,-364.16C1074.34,-355.18 916.47,-341.82 767.69,-324.14"/>
<polygon fill="black" stroke="black" points="767.8,-320.62 757.45,-322.91 766.96,-327.58 767.8,-320.62"/>
</g>
<!-- [root] provider[&quot;registry.terraform.io/hashicorp/aws&quot;] (close)&#45;&gt;[root] aws_nat_gateway.nat (expand) -->
<g id="edge46" class="edge">
<title>[root] provider[&quot;registry.terraform.io/hashicorp/aws&quot;] (close)&#45;&gt;[root] aws_nat_gateway.nat (expand)</title>
<path fill="none" stroke="black" d="M1629.99,-368.68C1842.39,-360.21 2120.53,-345.3 2169.19,-324 2200.63,-310.24 2228.02,-281.22 2244.99,-260.05"/>
<polygon fill="black" stroke="black" points="2247.81,-262.13 2251.19,-252.08 2242.28,-257.83 2247.81,-262.13"/>
</g>
<!-- [root] provider[&quot;registry.terraform.io/hashicorp/aws&quot;] (close)&#45;&gt;[root] aws_route_table_association.a (expand) -->
<g id="edge47" class="edge">
<title>[root] provider[&quot;registry.terraform.io/hashicorp/aws&quot;] (close)&#45;&gt;[root] aws_route_table_association.a (expand)</title>
<path fill="none" stroke="black" d="M1539.55,-362.9C1644.32,-353.25 1784.67,-339.62 1918.41,-324.07"/>
<polygon fill="black" stroke="black" points="1918.91,-327.53 1928.43,-322.9 1918.1,-320.58 1918.91,-327.53"/>
</g>
<!-- [root] provider[&quot;registry.terraform.io/hashicorp/aws&quot;] (close)&#45;&gt;[root] aws_route_table_association.b (expand) -->
<g id="edge48" class="edge">
<title>[root] provider[&quot;registry.terraform.io/hashicorp/aws&quot;] (close)&#45;&gt;[root] aws_route_table_association.b (expand)</title>
<path fill="none" stroke="black" d="M1475.17,-360.94C1537.27,-350.44 1618.63,-336.68 1683.64,-325.69"/>
<polygon fill="black" stroke="black" points="1684.24,-329.14 1693.51,-324.02 1683.07,-322.24 1684.24,-329.14"/>
</g>
<!-- [root] provider[&quot;registry.terraform.io/hashicorp/aws&quot;] (close)&#45;&gt;[root] aws_secretsmanager_secret_version.smv (expand) -->
<g id="edge49" class="edge">
<title>[root] provider[&quot;registry.terraform.io/hashicorp/aws&quot;] (close)&#45;&gt;[root] aws_secretsmanager_secret_version.smv (expand)</title>
<path fill="none" stroke="black" d="M1278.08,-361.12C1210.22,-350.56 1120.84,-336.66 1049.68,-325.59"/>
<polygon fill="black" stroke="black" points="1050.18,-322.12 1039.76,-324.04 1049.1,-329.04 1050.18,-322.12"/>
</g>
<!-- [root] provider[&quot;registry.terraform.io/hashicorp/tls&quot;] (close) -->
<g id="node27" class="node">
<title>[root] provider[&quot;registry.terraform.io/hashicorp/tls&quot;] (close)</title>
<ellipse fill="none" stroke="black" cx="702.19" cy="-378" rx="285.95" ry="18"/>
<text text-anchor="middle" x="702.19" y="-374.3" font-family="Times,serif" font-size="14.00">[root] provider[&quot;registry.terraform.io/hashicorp/tls&quot;] (close)</text>
</g>
<!-- [root] provider[&quot;registry.terraform.io/hashicorp/tls&quot;] (close)&#45;&gt;[root] tls_private_key.key_genrator (expand) -->
<g id="edge50" class="edge">
<title>[root] provider[&quot;registry.terraform.io/hashicorp/tls&quot;] (close)&#45;&gt;[root] tls_private_key.key_genrator (expand)</title>
<path fill="none" stroke="black" d="M607.41,-360.97C584.81,-353.12 562.53,-341.42 546.19,-324 530.58,-307.36 524.91,-281.64 522.96,-262.12"/>
<polygon fill="black" stroke="black" points="526.44,-261.73 522.21,-252.02 519.46,-262.25 526.44,-261.73"/>
</g>
<!-- [root] root -->
<g id="node28" class="node">
<title>[root] root</title>
<ellipse fill="none" stroke="black" cx="1000.19" cy="-450" rx="58.49" ry="18"/>
<text text-anchor="middle" x="1000.19" y="-446.3" font-family="Times,serif" font-size="14.00">[root] root</text>
</g>
<!-- [root] root&#45;&gt;[root] provider[&quot;registry.terraform.io/hashicorp/aws&quot;] (close) -->
<g id="edge51" class="edge">
<title>[root] root&#45;&gt;[root] provider[&quot;registry.terraform.io/hashicorp/aws&quot;] (close)</title>
<path fill="none" stroke="black" d="M1049.09,-439.99C1107.79,-429.18 1207.66,-410.78 1282.4,-397.01"/>
<polygon fill="black" stroke="black" points="1283.11,-400.44 1292.31,-395.19 1281.84,-393.56 1283.11,-400.44"/>
</g>
<!-- [root] root&#45;&gt;[root] provider[&quot;registry.terraform.io/hashicorp/tls&quot;] (close) -->
<g id="edge52" class="edge">
<title>[root] root&#45;&gt;[root] provider[&quot;registry.terraform.io/hashicorp/tls&quot;] (close)</title>
<path fill="none" stroke="black" d="M955.25,-438.44C909.54,-427.71 837.74,-410.84 782.27,-397.81"/>
<polygon fill="black" stroke="black" points="783,-394.39 772.47,-395.51 781.4,-401.2 783,-394.39"/>
</g>
</g>
</svg>
